<svg xmlns="http://www.w3.org/2000/svg" width="274" height="251" fill="none"><path fill="#1C2225" fill-opacity=".2" d="M280.731 258.568h-10.604v-10.773h10.604v10.773ZM206.502 258.568h-10.605v-10.773h10.605v10.773ZM195.897 258.568h-10.604v-10.773h10.604v10.773ZM185.293 258.568h-10.605v-10.773h10.605v10.773ZM153.479 258.568h-10.604v-10.773h10.604v10.773ZM132.274 258.568H121.67v-10.773h10.604v10.773ZM100.461 258.568H89.856v-10.773h10.605v10.773ZM89.856 258.569H79.252v-10.774h10.604v10.774Z"/><path fill="#1C2225" fill-opacity=".2" d="M79.253 258.568H68.648v-10.773h10.605v10.773ZM5.022 258.568H-5.582v-10.773H5.022v10.773ZM195.897 247.795h-10.604v-10.774h10.604v10.774ZM185.293 247.795h-10.605v-10.774h10.605v10.774ZM174.688 247.795h-10.604v-10.774h10.604v10.774ZM111.065 247.795h-10.604v-10.774h10.604v10.774ZM100.461 247.795H89.856v-10.774h10.605v10.774ZM89.856 247.795H79.252v-10.774h10.604v10.774ZM248.919 237.021h-10.605v-10.773h10.605v10.773ZM153.479 237.021h-10.604v-10.773h10.604v10.773ZM132.274 237.021H121.67v-10.774h10.604v10.774ZM36.835 237.021H26.23v-10.774h10.605v10.774ZM248.919 226.247h-10.605v-10.773h10.605v10.773ZM238.313 226.247h-10.604v-10.773h10.604v10.773ZM164.085 226.247H153.48v-10.773h10.605v10.773ZM153.479 226.247h-10.604v-10.773h10.604v10.773Z"/><path fill="#1C2225" fill-opacity=".2" d="M132.274 226.247H121.67v-10.773h10.604v10.773ZM121.67 226.247h-10.605v-10.773h10.605v10.773ZM47.44 226.247H36.834v-10.773h10.604v10.773Z"/><path fill="#1C2225" fill-opacity=".2" d="M36.835 226.247H26.23v-10.773h10.605v10.773ZM248.919 215.474h-10.605V204.7h10.605v10.774ZM238.313 215.474h-10.604V204.7h10.604v10.774Z"/><path fill="#1C2225" fill-opacity=".2" d="M227.71 215.474h-10.605V204.7h10.605v10.774ZM174.688 215.474h-10.604V204.7h10.604v10.774Z"/><path fill="#1C2225" fill-opacity=".2" d="M164.085 215.474H153.48V204.7h10.605v10.774ZM121.67 215.474h-10.605V204.7h10.605v10.774ZM111.065 215.474h-10.604V204.7h10.604v10.774ZM58.044 215.474H47.44V204.7h10.604v10.774ZM47.44 215.474H36.834V204.7h10.604v10.774Z"/><path fill="#1C2225" fill-opacity=".2" d="M36.835 215.474H26.23V204.7h10.605v10.774ZM238.313 204.7h-10.604v-10.773h10.604V204.7Z"/><path fill="#1C2225" fill-opacity=".2" d="M227.71 204.7h-10.605v-10.773h10.605V204.7ZM185.293 204.7h-10.605v-10.773h10.605V204.7ZM174.688 204.7h-10.604v-10.773h10.604V204.7ZM111.065 204.7h-10.604v-10.774h10.604V204.7ZM100.461 204.7H89.856v-10.774h10.605V204.7ZM58.044 204.7H47.44v-10.774h10.604V204.7ZM47.44 204.7H36.834v-10.774h10.604V204.7ZM280.731 193.926h-10.604v-10.773h10.604v10.773ZM270.127 193.926h-10.605v-10.773h10.605v10.773Z"/><path fill="#1C2225" fill-opacity=".2" d="M259.523 193.926h-10.604v-10.773h10.604v10.773ZM227.71 193.926h-10.605v-10.773h10.605v10.773ZM195.897 193.926h-10.604v-10.773h10.604v10.773ZM185.293 193.926h-10.605v-10.773h10.605v10.773ZM100.461 193.926H89.856v-10.773h10.605v10.773ZM89.856 193.926H79.252v-10.773h10.604v10.773ZM58.044 193.926H47.44v-10.773h10.604v10.773ZM26.231 193.926H15.627v-10.773h10.604v10.773ZM15.627 193.926H5.022v-10.773h10.605v10.773ZM5.022 193.926H-5.582v-10.773H5.022v10.773ZM270.127 183.153h-10.605v-10.774h10.605v10.774Z"/><path fill="#1C2225" fill-opacity=".2" d="M259.523 183.153h-10.604v-10.774h10.604v10.774ZM248.919 183.153h-10.605v-10.774h10.605v10.774ZM206.502 183.153h-10.605v-10.774h10.605v10.774ZM195.897 183.153h-10.604v-10.774h10.604v10.774ZM89.856 183.153H79.252v-10.774h10.604v10.774Z"/><path fill="#1C2225" fill-opacity=".2" d="M79.253 183.153H68.648v-10.774h10.605v10.774ZM36.835 183.153H26.23v-10.774h10.605v10.774Z"/><path fill="#1C2225" fill-opacity=".2" d="M26.231 183.153H15.627v-10.774h10.604v10.774ZM15.627 183.153H5.022v-10.774h10.605v10.774ZM259.523 172.379h-10.604v-10.774h10.604v10.774ZM248.919 172.379h-10.605v-10.774h10.605v10.774ZM238.313 172.379h-10.604v-10.774h10.604v10.774ZM217.105 172.379h-10.604v-10.774h10.604v10.774Z"/><path fill="#1C2225" fill-opacity=".2" d="M206.502 172.379h-10.605v-10.774h10.605v10.774ZM142.878 172.379h-10.605v-10.774h10.605v10.774ZM79.253 172.379H68.648v-10.774h10.605v10.774ZM68.648 172.379H58.044v-10.774h10.604v10.774ZM47.44 172.379H36.834v-10.774h10.604v10.774Z"/><path fill="#1C2225" fill-opacity=".2" d="M36.835 172.379H26.23v-10.774h10.605v10.774Z"/><path fill="#1C2225" fill-opacity=".2" d="M26.231 172.379H15.627v-10.774h10.604v10.774ZM153.479 161.605h-10.604v-10.773h10.604v10.773Z"/><path fill="#1C2225" fill-opacity=".2" d="M142.878 161.605h-10.605v-10.773h10.605v10.773Z"/><path fill="#1C2225" fill-opacity=".2" d="M132.274 161.605H121.67v-10.773h10.604v10.773ZM259.523 150.832h-10.604v-10.774h10.604v10.774ZM248.919 150.832h-10.605v-10.774h10.605v10.774ZM238.313 150.832h-10.604v-10.774h10.604v10.774ZM217.105 150.832h-10.604v-10.774h10.604v10.774Z"/><path fill="#1C2225" fill-opacity=".2" d="M206.502 150.832h-10.605v-10.774h10.605v10.774ZM142.878 150.832h-10.605v-10.774h10.605v10.774ZM79.253 150.832H68.648v-10.774h10.605v10.774ZM68.648 150.832H58.044v-10.774h10.604v10.774ZM47.44 150.832H36.834v-10.774h10.604v10.774Z"/><path fill="#1C2225" fill-opacity=".2" d="M36.835 150.832H26.23v-10.774h10.605v10.774Z"/><path fill="#1C2225" fill-opacity=".2" d="M26.231 150.832H15.627v-10.774h10.604v10.774ZM270.127 140.058h-10.605v-10.774h10.605v10.774Z"/><path fill="#1C2225" fill-opacity=".2" d="M259.523 140.058h-10.604v-10.774h10.604v10.774ZM248.919 140.058h-10.605v-10.774h10.605v10.774ZM206.502 140.058h-10.605v-10.774h10.605v10.774ZM195.897 140.058h-10.604v-10.774h10.604v10.774ZM89.856 140.058H79.252v-10.774h10.604v10.774Z"/><path fill="#1C2225" fill-opacity=".2" d="M79.253 140.058H68.648v-10.774h10.605v10.774ZM36.835 140.058H26.23v-10.774h10.605v10.774Z"/><path fill="#1C2225" fill-opacity=".2" d="M26.231 140.058H15.627v-10.774h10.604v10.774ZM15.627 140.058H5.022v-10.774h10.605v10.774ZM280.731 129.284h-10.604V118.51h10.604v10.774ZM270.127 129.284h-10.605V118.51h10.605v10.774Z"/><path fill="#1C2225" fill-opacity=".2" d="M259.523 129.284h-10.604V118.51h10.604v10.774ZM227.71 129.284h-10.605V118.51h10.605v10.774ZM195.897 129.284h-10.604V118.51h10.604v10.774ZM185.293 129.284h-10.605V118.51h10.605v10.774ZM100.461 129.284H89.856v-10.773h10.605v10.773ZM89.856 129.284H79.252V118.51h10.604v10.774ZM58.044 129.284H47.44v-10.773h10.604v10.773ZM26.231 129.284H15.627v-10.773h10.604v10.773ZM15.627 129.284H5.022v-10.773h10.605v10.773ZM5.022 129.284H-5.582v-10.773H5.022v10.773Z"/><path fill="#1C2225" fill-opacity=".2" d="M238.313 118.511h-10.604v-10.774h10.604v10.774Z"/><path fill="#1C2225" fill-opacity=".2" d="M227.71 118.511h-10.605v-10.774h10.605v10.774ZM185.293 118.511h-10.605v-10.774h10.605v10.774ZM174.688 118.511h-10.604v-10.774h10.604v10.774ZM111.065 118.511h-10.604v-10.774h10.604v10.774ZM100.461 118.511H89.856v-10.774h10.605v10.774ZM58.044 118.511H47.44v-10.774h10.604v10.774ZM47.44 118.511H36.834v-10.774h10.604v10.774ZM248.919 107.737h-10.605V96.963h10.605v10.774ZM238.313 107.737h-10.604V96.963h10.604v10.774Z"/><path fill="#1C2225" fill-opacity=".2" d="M227.71 107.737h-10.605V96.963h10.605v10.774ZM174.688 107.737h-10.604V96.963h10.604v10.774Z"/><path fill="#1C2225" fill-opacity=".2" d="M164.085 107.737H153.48V96.963h10.605v10.774ZM121.67 107.737h-10.605V96.963h10.605v10.774ZM111.065 107.737h-10.604V96.963h10.604v10.774ZM58.044 107.737H47.44V96.963h10.604v10.774ZM47.44 107.737H36.834V96.963h10.604v10.774Z"/><path fill="#1C2225" fill-opacity=".2" d="M36.835 107.737H26.23V96.963h10.605v10.774ZM248.919 96.963h-10.605V86.19h10.605v10.774ZM238.313 96.963h-10.604V86.19h10.604v10.774ZM164.085 96.963H153.48V86.19h10.605v10.774ZM153.479 96.963h-10.604V86.19h10.604v10.774ZM132.274 96.963H121.67V86.19h10.604v10.774ZM121.67 96.963h-10.605V86.19h10.605v10.774Z"/><path fill="#1C2225" fill-opacity=".2" d="M47.44 96.963H36.834V86.19h10.604v10.774Z"/><path fill="#1C2225" fill-opacity=".2" d="M36.835 96.963H26.23V86.19h10.605v10.774ZM248.919 86.19h-10.605V75.415h10.605v10.773ZM153.479 86.19h-10.604V75.415h10.604v10.773ZM132.274 86.19H121.67V75.415h10.604v10.773ZM36.835 86.19H26.23V75.415h10.605v10.773ZM195.897 64.642h-10.604V53.868h10.604v10.774ZM185.293 64.642h-10.605V53.868h10.605v10.774ZM174.688 64.642h-10.604V53.868h10.604v10.774ZM111.065 64.642h-10.604V53.868h10.604v10.774ZM100.461 64.642H89.856V53.868h10.605v10.774ZM89.856 64.642H79.252V53.868h10.604v10.774ZM280.731 53.868h-10.604V43.095h10.604v10.773ZM206.502 53.868h-10.605V43.095h10.605v10.773ZM195.897 53.868h-10.604V43.095h10.604v10.773ZM185.293 53.868h-10.605V43.095h10.605v10.773ZM153.479 53.868h-10.604V43.095h10.604v10.773ZM132.274 53.868H121.67V43.095h10.604v10.773ZM100.461 53.868H89.856V43.095h10.605v10.773ZM89.856 53.868H79.252V43.095h10.604v10.773Z"/><path fill="#1C2225" fill-opacity=".2" d="M79.253 53.868H68.648V43.095h10.605v10.773ZM5.022 53.868H-5.582V43.095H5.022v10.773ZM280.731 43.095h-10.604V32.32h10.604v10.774ZM270.127 43.095h-10.605V32.32h10.605v10.774ZM217.105 43.095h-10.604V32.32h10.604v10.774Z"/><path fill="#1C2225" fill-opacity=".2" d="M206.502 43.095h-10.605V32.32h10.605v10.774ZM195.897 43.095h-10.604V32.32h10.604v10.774ZM164.085 43.095H153.48V32.32h10.605v10.774ZM153.479 43.095h-10.604V32.32h10.604v10.774ZM132.274 43.095H121.67V32.32h10.604v10.774ZM121.67 43.095h-10.605V32.32h10.605v10.774ZM89.856 43.095H79.252V32.32h10.604v10.774Z"/><path fill="#1C2225" fill-opacity=".2" d="M79.253 43.095H68.648V32.32h10.605v10.774ZM68.648 43.095H58.044V32.32h10.604v10.774ZM15.627 43.095H5.022V32.32h10.605v10.774ZM5.022 43.095H-5.582V32.32H5.022v10.774ZM280.731 32.32h-10.604V21.548h10.604v10.774ZM270.127 32.32h-10.605V21.548h10.605v10.774Z"/><path fill="#1C2225" fill-opacity=".2" d="M259.523 32.32h-10.604V21.548h10.604v10.774ZM174.688 32.32h-10.604V21.548h10.604v10.774Z"/><path fill="#1C2225" fill-opacity=".2" d="M164.085 32.32H153.48V21.548h10.605v10.774ZM153.479 32.32h-10.604V21.548h10.604v10.774ZM132.274 32.321H121.67V21.547h10.604v10.774ZM121.67 32.321h-10.605V21.547h10.605v10.774ZM111.065 32.321h-10.604V21.547h10.604v10.774ZM26.231 32.321H15.627V21.547h10.604v10.774ZM15.627 32.321H5.022V21.547h10.605v10.774ZM5.022 32.321H-5.582V21.547H5.022v10.774ZM270.127 21.547h-10.605V10.774h10.605v10.773Z"/><path fill="#1C2225" fill-opacity=".2" d="M259.523 21.547h-10.604V10.774h10.604v10.773ZM248.919 21.547h-10.605V10.774h10.605v10.773ZM174.688 21.547h-10.604V10.774h10.604v10.773Z"/><path fill="#1C2225" fill-opacity=".2" d="M164.085 21.547H153.48V10.774h10.605v10.773ZM121.67 21.547h-10.605V10.774h10.605v10.773ZM111.065 21.547h-10.604V10.774h10.604v10.773ZM36.835 21.547H26.23V10.774h10.605v10.773Z"/><path fill="#1C2225" fill-opacity=".2" d="M26.231 21.547H15.627V10.774h10.604v10.773ZM15.627 21.547H5.022V10.774h10.605v10.773ZM259.523 10.774h-10.604V0h10.604v10.774ZM248.919 10.774h-10.605V0h10.605v10.774ZM238.313 10.774h-10.604V0h10.604v10.774ZM174.688 10.774h-10.604V0h10.604v10.774ZM111.065 10.774h-10.604V0h10.604v10.774ZM47.44 10.774H36.834V0h10.604v10.774Z"/><path fill="#1C2225" fill-opacity=".2" d="M36.835 10.774H26.23V0h10.605v10.774Z"/><path fill="#1C2225" fill-opacity=".2" d="M26.231 10.774H15.627V0h10.604v10.774Z"/></svg>