<svg xmlns="http://www.w3.org/2000/svg" aria-hidden="true" style="position:absolute;width:0;height:0;overflow:hidden"><defs>
<symbol id="icon-facebook" viewBox="0 0 32 32"><path fill="#fcf9f9" d="M20.694 1.615h1.28v4.8h-1.6c-.64 0-1.28 0-1.6.32-.32.32-.32.64-.32 1.387v1.707h3.52v4.053h-3.52v17.6h-5.44V13.775h-2.88V9.722h2.88V8.335c0-2.347.32-4.053.96-4.8.96-1.387 2.88-2.027 5.76-2.027.32.107.64.107.96.107z" style="fill:var(--color1, #fcf9f9)"/></symbol>
<symbol id="icon-instagram" viewBox="0 0 32 32"><path fill="#fcf9f9" d="M30.837 9.882a10.8 10.8 0 0 0-.695-3.669 7.64 7.64 0 0 0-4.367-4.36 10.97 10.97 0 0 0-3.625-.695c-1.596-.071-2.101-.091-6.151-.091s-4.569 0-6.153.091a10.97 10.97 0 0 0-3.624.695 7.635 7.635 0 0 0-4.367 4.36 10.834 10.834 0 0 0-.695 3.618c-.071 1.595-.093 2.1-.093 6.143s0 4.56.093 6.143a10.91 10.91 0 0 0 .695 3.621 7.64 7.64 0 0 0 4.369 4.358c1.154.45 2.38.705 3.624.745 1.597.071 2.103.093 6.153.093s4.569 0 6.153-.093a10.939 10.939 0 0 0 3.626-.694 7.649 7.649 0 0 0 4.367-4.36c.436-1.159.67-2.381.695-3.621.071-1.593.093-2.098.093-6.143-.003-4.043-.003-4.557-.096-6.141zM15.988 23.62c-4.236 0-7.667-3.426-7.667-7.655s3.431-7.655 7.667-7.655c4.233 0 7.667 3.426 7.667 7.655s-3.435 7.655-7.667 7.655zm7.973-13.808a1.784 1.784 0 1 1 0-3.57 1.784 1.784 0 1 1 0 3.57z" style="fill:var(--color1, #fcf9f9)"/></symbol>
<symbol id="icon-youtube" viewBox="0 0 32 32"><path fill="#fcf9f9" d="M24.874 5.231c-1.465-.086-4.48-.172-9.046-.172h-.603c-4.394 0-7.323.086-8.788.258-1.982.172-3.36.689-4.135 1.378-.689.603-1.206 1.723-1.378 3.188-.086.948-.172 2.929-.172 5.945v.431c0 2.843.086 4.825.258 5.772.258 1.378.689 2.412 1.551 3.015.862.689 2.326 1.12 4.394 1.292 1.465.086 4.48.172 9.046.172h.603c4.394 0 7.323-.086 8.788-.258 1.982-.172 3.36-.689 4.135-1.378.689-.603 1.206-1.723 1.378-3.188.086-.948.172-2.929.172-5.945v-.431c0-2.843-.086-4.825-.258-5.772-.258-1.378-.689-2.412-1.551-3.015-.862-.689-2.326-1.12-4.394-1.292zm-3.36 10.597-9.477 5.686V10.142l9.477 5.686z" style="fill:var(--color1, #fcf9f9)"/></symbol>
<symbol id="icon-sun" viewBox="0 0 32 32"><path fill="#ecd979" d="M15.434.333a.653.653 0 0 1 1.133 0l1.84 3.203c.19.33.621.429.935.214l3.081-2.107a.653.653 0 0 1 1.02.496l.239 3.642a.653.653 0 0 0 .754.602l3.69-.584c.504-.08.9.423.706.894l-1.386 3.36a.653.653 0 0 0 .421.876l3.555 1.036a.653.653 0 0 1 .252 1.115l-2.731 2.433a.654.654 0 0 0 0 .975l2.731 2.433a.653.653 0 0 1-.252 1.115l-3.555 1.036a.653.653 0 0 0-.421.876l1.386 3.36a.653.653 0 0 1-.706.894l-3.69-.584a.653.653 0 0 0-.754.602l-.239 3.642a.653.653 0 0 1-1.02.496l-3.081-2.107a.653.653 0 0 0-.935.214l-1.84 3.203a.653.653 0 0 1-1.133 0l-1.84-3.203a.653.653 0 0 0-.935-.214l-3.081 2.107a.652.652 0 0 1-1.02-.496l-.239-3.642a.653.653 0 0 0-.754-.602l-3.69.584a.653.653 0 0 1-.706-.894l1.386-3.36a.653.653 0 0 0-.421-.876L.579 20.036a.653.653 0 0 1-.252-1.115l2.731-2.433a.654.654 0 0 0 0-.975L.327 13.08a.653.653 0 0 1 .252-1.115l3.555-1.036a.653.653 0 0 0 .421-.876l-1.386-3.36a.653.653 0 0 1 .706-.894l3.69.584c.38.06.729-.219.754-.602l.239-3.642a.653.653 0 0 1 1.02-.496l3.081 2.107a.653.653 0 0 0 .935-.214l1.84-3.203z" style="fill:var(--color2, #ecd979)"/></symbol>
<symbol id="icon-close" viewBox="0 0 32 32"><path stroke-linecap="round" stroke-linejoin="round" stroke-width="1.778" d="M24 8 8 24M8 8l16 16"/></symbol>
<symbol id="icon-menu" viewBox="0 0 32 32"><path fill="none" stroke="#ecd979" stroke-linecap="round" stroke-width="1.778" d="M5.759 8.97h25.353M5.759 21.899h25.353M13.411 15.434h17.701" style="stroke:var(--color2, #ecd979)"/></symbol>
<symbol id="icon-arrow" viewBox="0 0 32 32"><path fill="#ecd979" d="M27.765 17.957a42.712 42.712 0 0 1-.337-3.49c-.022-1.04.017-1.94.119-2.7L2.254 26.37l-1.197-2.073L26.35 9.694a22.284 22.284 0 0 1-2.426-1.297 48.166 48.166 0 0 1-2.825-1.988l1.519-.877c3.209 1.349 6.143 2.024 8.804 2.023l.513.888c-1.35 2.271-2.233 5.149-2.65 8.636l-1.519.877z" style="fill:var(--color2, #ecd979)"/></symbol></defs></svg>